<?xml version="1.0" encoding="UTF-8"?>
<svg width="24px" height="24px" viewBox="0 0 24 24" version="1.1" xmlns="http://www.w3.org/2000/svg" xmlns:xlink="http://www.w3.org/1999/xlink">
    <!-- Generator: Sketch 52.4 (67378) - http://www.bohemiancoding.com/sketch -->
    <title>icon_话题</title>
    <desc>Created with Sketch.</desc>
    <g id="要闻页" stroke="none" stroke-width="1" fill="none" fill-rule="evenodd">
        <g id="首页_灰度版本" transform="translate(-15.000000, -1336.000000)" fill-rule="nonzero">
            <g id="分组-7" transform="translate(0.000000, 1336.000000)">
                <g id="分组-5" transform="translate(15.000000, 0.000000)">
                    <g id="话题icon">
                        <rect id="矩形" fill="#D8D8D8" opacity="0" x="0" y="0" width="24" height="24"></rect>
                        <path d="M5,5 L19,5 C20.1045695,5 21,5.8954305 21,7 L21,17 C21,18.1045695 20.1045695,19 19,19 L7,19 L3,21.4636773 L3,7 C3,5.8954305 3.8954305,5 5,5 Z M15.81493,10.990753 L16,9.97622193 L14.9548989,9.97622193 L15.3141524,8 L14.007776,8 L13.6485226,9.97622193 L12.1135303,9.97622193 L12.4727838,8 L11.155521,8 L10.7962675,9.97622193 L9.72939347,9.97622193 L9.55520995,10.990753 L10.6111975,10.990753 L10.2410575,12.988111 L9.18506998,12.988111 L9,14.01321 L10.0559876,14.01321 L9.68584759,16 L11.0139969,16 L11.3732504,14.01321 L12.9082426,14.01321 L12.5489891,16 L13.844479,16 L14.214619,14.01321 L15.2706065,14.01321 L15.44479,12.988111 L14.399689,12.988111 L14.7698289,10.990753 L15.81493,10.990753 Z M13.0933126,12.988111 L11.5583204,12.988111 L11.9284603,10.990753 L13.4634526,10.990753 L13.0933126,12.988111 Z" id="合并形状" fill="#537BFF"></path>
                    </g>
                </g>
            </g>
        </g>
    </g>
</svg>